<svg enable-background="new 0 0 160 50" viewBox="0 0 160 50" xmlns="http://www.w3.org/2000/svg"><path clip-rule="evenodd" d="m69.7 38.9c-8.4 6.2-20.7 9.5-31.2 9.5-14.1.1-27.6-5.1-38.1-14.5-.8-.7-.1-1.7.9-1.1 11.6 6.6 24.7 10.1 38.1 10.1 10-.1 19.9-2.1 29.1-6 1.4-.6 2.6.9 1.2 2z" fill="#f90" fill-rule="evenodd"/><path clip-rule="evenodd" d="m73.2 34.9c-1.1-1.4-7.1-.7-9.8-.3-.8.1-1-.6-.2-1.1 4.8-3.5 12.7-2.5 13.6-1.4s-.2 9.1-4.8 12.9c-.7.6-1.4.3-1.1-.5 1-2.5 3.3-8.3 2.3-9.6z" fill="#f90" fill-rule="evenodd"/><g enable-background="new" fill="#232f3e"><path d="m25 20.9v3h-24.1v-3h7.1v-15.5h-6.2v-3.1h22.5v3.1h-6.5v11.6c1.1-2.4 2.4-6 3.1-9l3 1c-1 3.2-2.3 6.7-3.4 9l-2.8-1v3.8h7.3zm-20.4-12.8c1.2 2.9 2.7 6.7 3.3 9l-3 1.3c-.6-2.5-1.9-6.4-3.1-9.3zm6.8 12.8h3v-15.5h-3z"/><path d="m45.2 20.3h-17v-3h17.1v3zm5.8-8.2s-.1.9-.1 1.3c-.6 6.7-1.2 9.5-2.2 10.5-.7.8-1.5 1-2.6 1.1-.9.1-2.4.1-4 .1-.1-.9-.4-2.1-1-3 1.6.1 3.1.2 3.8.2.5 0 .9-.1 1.2-.3.7-.6 1.2-2.6 1.6-7h-16.4c.4-2.2.7-5.8.9-8.5l3.1.2c-.2 1.7-.3 3.7-.5 5.5h8.6c.3-2.3.5-4.8.7-6.9h-14.1v-3h14.6l.5-.1 2.3.2c-.2 2.9-.6 6.5-1 9.8h4.6z"/><path d="m69.4 22c2.7 0 6.6-.2 9.2-.5-.3.8-.8 2.1-.8 2.9-1.8.1-5.9.3-8.5.3-3.1 0-5.3-.3-7.3-1.3-1.2-.6-2.1-1.3-2.7-1.3-.9 0-2.2 1.5-3.4 3l-1.8-2.6c1.1-1 2.2-1.8 3.3-2.4v-7.1h-2.9v-2.9h5.6v9.6c.5.2.9.5 1.6.8-.2-.7-.5-1.5-.8-2h1.8c.3 0 .4-.1.4-.4v-5.3c-.7.3-1.4.5-2.1.7l-.8-2.7c.8-.2 1.8-.5 2.9-.9v-3.7c.6-.5 1.2-1.2 1.7-2h-3.8v-2.5h5.8l.5-.2 1.7 1.3c-.8 1.3-1.9 2.7-3.1 3.8v2.4l1.9-.6.4 2.1c.3-1.6.6-3.4.7-5l2.5.5c-.5 4-1.3 8.2-2.4 10.9-.5-.3-1.7-.9-2.3-1.1.6-1.3 1-2.9 1.4-4.7l-2.2.8v6.4c0 1.2-.2 1.9-1 2.3-.6.3-1.3.4-2.4.5 1.8.7 4.2.9 6.9.9zm-11-14.4c-.8-1.2-2.4-3-3.8-4.3l2.3-1.6c1.4 1.2 3.1 2.9 3.9 4.1zm15.9 10.7c0 1.4-.3 2-1.2 2.4s-2.1.5-4 .5c-.2-.7-.6-1.7-1-2.4 1.2.1 2.5.1 2.8 0 .4 0 .5-.1.5-.5v-17.1h2.8v4.8l2.2-.5c1 3.3 1.9 7.4 2.2 10.2l-2.5.6c-.2-2.6-1-6.5-1.9-9.7v11.7z"/><path d="m101.8 25.1c-.3-.6-.6-1.3-1-2.1-6.7.4-13.7.7-18.5.9l-.2-3.3c1.1 0 2.4-.1 3.8-.1 1-2.1 2.1-4.9 2.9-7.3h-7.2v-3.2h23.4v3.2h-12.3c-1 2.5-2.2 5.1-3.3 7.2 3-.1 6.3-.2 9.5-.3-.9-1.3-1.9-2.6-2.8-3.8l3-1.5c2.4 2.6 4.7 6.1 5.9 8.5zm.3-19.4h-17.7v-3.2h17.8v3.2z"/><path d="m116.2 17.4c-.3-.7-.9-1.8-1.6-2.9v10.5h-3v-9.3c-.9 2-1.8 3.8-2.8 5.1-.3-.9-1-2.2-1.4-2.9 1.5-1.7 2.9-4.4 3.8-7h-3.5v-2.8h3.9v-2.9c-1 .2-2 .3-2.9.4-.1-.7-.5-1.7-.8-2.4 3-.4 6.2-1.2 8.4-2.1l1.7 2.5c-1 .4-2.2.7-3.3 1v3.6h3.4v2.8h-3.4v.2c.8.7 2.9 3.2 3.4 3.8zm12.8 1.1v6.5h-3v-6l-7.8 1.3-.5-2.9 8.3-1.4v-15.1h3v14.7l2.6-.4.5 2.9zm-6.5-3.6c-.8-1.1-2.6-2.8-4.1-4l2-1.8c1.5 1 3.4 2.6 4.3 3.8zm.7-6.8c-.7-1.1-2.4-2.8-3.9-3.9l2-1.8c1.4 1.1 3.2 2.6 4 3.7z"/><path d="m143.5 14.7c-.9.3-1.8.5-2.8.8v6.2c0 1.5-.3 2.2-1.2 2.7s-2.1.5-3.9.5c-.1-.8-.5-2-.9-2.8h2.4c.4 0 .5-.1.5-.5v-5.3l-2.5.6-.8-2.9c1-.2 2.1-.4 3.3-.8v-4.5h-3v-2.9h3v-4.9h3.1v4.9h2.5v2.9h-2.5v3.8l2.4-.6zm14.4-3.5c-1 3.6-2.6 6.4-4.8 8.6 1.7 1.2 3.7 2.1 6 2.6-.6.6-1.5 1.9-2 2.7-2.5-.8-4.7-1.8-6.5-3.3-2 1.4-4.3 2.4-6.8 3.2-.3-.8-1.1-2.1-1.7-2.8 2.3-.5 4.4-1.4 6.2-2.5-1.5-1.7-2.8-3.8-3.7-6.2l.8-.2h-1.3v-2.8h5.1v-3.1h-5.6v-2.8h5.6v-3.8h3.1v3.7h5.8v2.9h-5.8v3.1h3.1l.5-.1zm-10.3 2.1c.7 1.7 1.8 3.3 3.1 4.6 1.3-1.3 2.5-2.8 3.2-4.6z"/></g></svg>